<svg xmlns="http://www.w3.org/2000/svg" enable-background="new 0 0 20 20" height="20px" viewBox="0 0 20 20" width="20px" fill="#424750"><g><rect fill="none" height="20" width="20" x="0" y="0"/></g><g><g><path d="M8.39,10.77c0.08,0,1.88,0.07,2.96-0.19c0,0,0.01,0,0.01,0c1.24-0.3,2.95-1.18,3.4-4.02c0,0,0.99-3.56-3.91-3.56H6.63 C6.25,3,5.92,3.28,5.86,3.66L4.08,14.98c-0.04,0.24,0.15,0.45,0.38,0.45h2.66h0l0.65-4.14C7.82,10.99,8.08,10.77,8.39,10.77z"/><path d="M15.43,7.11c-0.63,2.9-2.61,4.44-5.77,4.44H8.52l-0.8,5.07C7.69,16.82,7.84,17,8.04,17h1.48c0.27,0,0.5-0.2,0.54-0.46 c0.06-0.31,0.4-2.58,0.48-2.97c0.04-0.26,0.27-0.46,0.54-0.46h0.34c2.2,0,3.91-0.89,4.42-3.47C16.03,8.6,15.93,7.74,15.43,7.11z"/></g></g></svg>